<?xml version="1.0" standalone="no"?><!DOCTYPE svg PUBLIC "-//W3C//DTD SVG 1.1//EN" "http://www.w3.org/Graphics/SVG/1.1/DTD/svg11.dtd"><svg t="1699979985306" class="icon" viewBox="0 0 1024 1024" version="1.1" xmlns="http://www.w3.org/2000/svg" p-id="1227" xmlns:xlink="http://www.w3.org/1999/xlink" width="200" height="200"><path d="M799.29 298.64l-282.82 47.74-285.26-47.74a68.28 68.28 0 0 0-68.27 68.27v348.48a68.27 68.27 0 0 0 68.27 68.27h203.2a46.25 46.25 0 0 1 27.1 9c13.49 9.74 32.57 15.82 53.74 15.82s40.25-6.08 53.75-15.82a46.25 46.25 0 0 1 27.1-9h203.2a68.27 68.27 0 0 0 68.27-68.27V366.91a68.28 68.28 0 0 0-68.28-68.27z" fill="#4DA6FF" p-id="1228"></path><path d="M253.5 262.57c70.9-5.14 194 6.05 262.63 61.61v448.93s-85.51-38.45-262.2-39.93a50.77 50.77 0 0 1-50.46-50.69V310.31c0-27.31 22.83-45.77 50.03-47.74z" fill="#A9D8FF" p-id="1229"></path><path d="M779.1 262.57c-70.9-5.14-194 6.05-262.63 61.61v448.93s85.51-38.45 262.2-39.93a50.76 50.76 0 0 0 50.46-50.69V310.31c0-27.31-22.83-45.77-50.03-47.74z" fill="#83C7FF" p-id="1230"></path><path d="M715.49 386a53.43 53.43 0 0 1-53.43-53.43V265.3a18.93 18.93 0 0 1 11.45-17.38c9.22-3.95 23.27-8.24 42-9.3 19.12-1.08 24.9-0.72 39.12 0.84 8.64 0.94 14.31 5.94 14.31 13.76v79.37A53.43 53.43 0 0 1 715.49 386z" fill="#FFC627" p-id="1231"></path><path d="M296.87 229.34c78.8 0 171.25 37.06 219 92.61V772.8s-93.46-63.61-223.51-75.26c-19.35-1.73-35.12-22.79-35.12-50.69V283.76c0.04-40.95 20.6-54.42 39.63-54.42z" fill="#CCEAFF" p-id="1232"></path><path d="M565.88 520v112s0.12 27 21.12 23c0 0 77-17 171-21 0 0 22-6 22-31V469.62S782 448 758 447c0 0-112 9-176 42 0 0-16 12-16.12 31z" fill="#A9D8FF" p-id="1233"></path><path d="M481.64 404.51v29.82s-0.1 34.91-17 29.73c0 0-62-36.25-137.6-41.43 0 0-17.71-7.77-17.71-40.13v-43.22s-1.61-28 17.71-29.28c0 0 84.69 1.29 141.63 54.37 0 0 12.97 10.36 12.97 40.14zM481.64 534v11.69s-0.1 23.26-17 18.08c0 0-62-36.25-137.6-41.43 0 0-17.71-2.58-17.71-28.48v-9.56s-1.61-21.51 17.71-22.8c0 0 79.51 0 143 46.6a34.32 34.32 0 0 1 11.6 25.9zM481.64 628.47v11.7s-0.1 23.26-17 18.08c0 0-62-36.25-137.6-41.43 0 0-17.71-2.59-17.71-28.48v-9.56S307.72 557.27 327 556c0 0 79.51 0 143 46.61a34.29 34.29 0 0 1 11.64 25.86z" fill="#E6F6FF" p-id="1234"></path></svg>